/vscmnt/brussel_pixiu_data/_data_brussel/112/vsc11236/PredSimResults/SUBJ06_Dhondt2024_3seg/SUBJ06_Dhondt2024_3seg_12575785.mot
version=1
nRows=4
nColumns=124
inDegrees=yes
endheader
                time	         pelvis_tilt	         pelvis_list	     pelvis_rotation	           pelvis_tx	           pelvis_ty	           pelvis_tz	       hip_flexion_r	     hip_adduction_r	      hip_rotation_r	        knee_angle_r	       ankle_angle_r	    subtalar_angle_r	         mtp_angle_r	       hip_flexion_l	     hip_adduction_l	      hip_rotation_l	        knee_angle_l	       ankle_angle_l	    subtalar_angle_l	         mtp_angle_l	    lumbar_extension	      lumbar_bending	     lumbar_rotation	          arm_flex_r	           arm_add_r	           arm_rot_r	        elbow_flex_r	          arm_flex_l	           arm_add_l	           arm_rot_l	        elbow_flex_l	glut_med1_r/activation	glut_med2_r/activation	glut_med3_r/activation	glut_min1_r/activation	glut_min2_r/activation	glut_min3_r/activation	semimem_r/activation	semiten_r/activation	bifemlh_r/activation	bifemsh_r/activation	    sar_r/activation	add_long_r/activation	add_brev_r/activation	add_mag1_r/activation	add_mag2_r/activation	add_mag3_r/activation	    tfl_r/activation	   pect_r/activation	   grac_r/activation	glut_max1_r/activation	glut_max2_r/activation	glut_max3_r/activation	iliacus_r/activation	  psoas_r/activation	quad_fem_r/activation	    gem_r/activation	   peri_r/activation	rect_fem_r/activation	vas_med_r/activation	vas_int_r/activation	vas_lat_r/activation	med_gas_r/activation	lat_gas_r/activation	 soleus_r/activation	tib_post_r/activation	flex_dig_r/activation	flex_hal_r/activation	tib_ant_r/activation	per_brev_r/activation	per_long_r/activation	per_tert_r/activation	ext_dig_r/activation	ext_hal_r/activation	glut_med1_l/activation	glut_med2_l/activation	glut_med3_l/activation	glut_min1_l/activation	glut_min2_l/activation	glut_min3_l/activation	semimem_l/activation	semiten_l/activation	bifemlh_l/activation	bifemsh_l/activation	    sar_l/activation	add_long_l/activation	add_brev_l/activation	add_mag1_l/activation	add_mag2_l/activation	add_mag3_l/activation	    tfl_l/activation	   pect_l/activation	   grac_l/activation	glut_max1_l/activation	glut_max2_l/activation	glut_max3_l/activation	iliacus_l/activation	  psoas_l/activation	quad_fem_l/activation	    gem_l/activation	   peri_l/activation	rect_fem_l/activation	vas_med_l/activation	vas_int_l/activation	vas_lat_l/activation	med_gas_l/activation	lat_gas_l/activation	 soleus_l/activation	tib_post_l/activation	flex_dig_l/activation	flex_hal_l/activation	tib_ant_l/activation	per_brev_l/activation	per_long_l/activation	per_tert_l/activation	ext_dig_l/activation	ext_hal_l/activation	 ercspn_r/activation	 ercspn_l/activation	 intobl_r/activation	 intobl_l/activation	 extobl_r/activation	 extobl_l/activation	
          1.11884177	         -2.93019995	         -1.73134896	          1.83590358	          1.25310278	          0.93449500	         -0.00147992	         24.45453972	          4.05057086	          4.03363301	         -6.06020387	          6.44418827	         -3.21550573	          0.17584971	        -14.25354259	          0.84927321	          9.41020783	         -7.28239327	          6.56377580	          8.65754053	         15.94239852	         -4.54723124	          1.13522128	         -1.20773158	         -2.93373742	        -13.45041328	         18.37675171	         25.85088834	          0.62742664	        -13.48272069	         19.27186303	         46.39772307	          0.01000015	          0.01000025	          0.01000082	          0.01000021	          0.01000023	          0.01000041	          0.22162857	          0.02923778	          0.03511542	          0.01000025	          0.01000027	          0.11413572	          0.16715889	          0.17196631	          0.15017204	          0.08157350	          0.01000023	          0.02503472	          0.06721461	          0.01186502	          0.01396491	          0.06376728	          0.01202990	          0.01124553	          0.02945009	          0.01000036	          0.01000009	          0.01190373	          0.06623350	          0.06768630	          0.05636407	          0.01000001	          0.01000004	          0.01000000	          0.01186475	          0.01186475	          0.01186467	          0.22519438	          0.16796938	          0.12223835	          0.11522649	          0.30910673	          0.03192920	          0.26610158	          0.14398787	          0.07732408	          0.34639332	          0.31030576	          0.19585964	          0.01000171	          0.01000026	          0.01000026	          0.04840807	          0.10080454	          0.01000003	          0.01000006	          0.01000011	          0.01000045	          0.01000030	          0.44400493	          0.01000022	          0.01000030	          0.01981777	          0.01670186	          0.01000126	          0.26377864	          0.40821239	          0.01407968	          0.01670389	          0.07077609	          0.33735256	          0.01000363	          0.01000292	          0.01000263	          0.37616231	          0.45246687	          0.40552308	          0.30918503	          0.37069115	          0.43513780	          0.01344899	          0.01000826	          0.15531230	          0.01407691	          0.01489285	          0.01407719	          0.02058264	          0.01000000	          0.04013861	          0.01000000	          0.05846281	          0.01000002	
          1.13003019	         -2.92769958	         -2.03421161	          1.95910764	          1.26787351	          0.93401886	         -0.00132554	         23.47063907	          4.61643526	          4.12483858	         -4.95087497	          5.41429063	         -3.43176506	          0.19061952	        -14.32188382	          0.52594481	          9.18393293	         -8.72799654	          5.84016431	          9.10173499	         17.07251143	         -4.40020661	          1.59684937	         -1.26118448	         -3.19295311	        -13.44998836	         18.25330150	         24.92239285	          0.12393670	        -13.50823954	         19.25528199	         47.65923731	          0.01186472	          0.01000608	          0.01000005	          0.01186474	          0.01186469	          0.01000098	          0.19616520	          0.02464265	          0.02959655	          0.01000003	          0.01000014	          0.09619767	          0.24250573	          0.14495327	          0.17007355	          0.06875308	          0.01000046	          0.02793228	          0.05665101	          0.01000043	          0.01177015	          0.05756289	          0.01013925	          0.01000006	          0.11622612	          0.14445704	          0.05168185	          0.01670202	          0.08552793	          0.08320633	          0.07107859	          0.01000008	          0.01000012	          0.01226422	          0.01000003	          0.01000014	          0.01000015	          0.25732867	          0.18772360	          0.11429413	          0.16984466	          0.36222360	          0.02691104	          0.28930751	          0.12135785	          0.06517135	          0.29195215	          0.26153622	          0.16507714	          0.01000067	          0.01000013	          0.01000007	          0.04079996	          0.08496155	          0.01186537	          0.01000031	          0.01000037	          0.01000088	          0.01000026	          0.37422250	          0.01186579	          0.01001413	          0.01670329	          0.01407717	          0.01000053	          0.22232180	          0.34405529	          0.01186716	          0.01407873	          0.05965248	          0.31275790	          0.01000019	          0.01000020	          0.01000017	          0.34432038	          0.41554273	          0.38072035	          0.29443236	          0.34090218	          0.41444135	          0.01133526	          0.01000073	          0.15271852	          0.01186452	          0.01255220	          0.01186475	          0.01734774	          0.01390623	          0.03383018	          0.01459561	          0.04927443	          0.01000028	
          1.14121861	         -2.92132306	         -2.34596832	          2.06941929	          1.28292127	          0.93352671	         -0.00117813	         22.46464519	          5.13130532	          4.22993126	         -4.36384865	          4.09286706	         -3.62164260	          0.21038567	        -14.31980144	          0.19795390	          8.94004826	        -10.30446692	          4.96081228	          9.55515272	         18.24342054	         -4.23498239	          2.07305689	         -1.30614624	         -3.47093298	        -13.46058495	         18.17920017	         24.00700852	         -0.43569293	        -13.53464339	         19.22734669	         48.90831065	          0.01000000	          0.01000002	          0.02836988	          0.01000004	          0.01000004	          0.01000006	          0.16533466	          0.05314931	          0.02494524	          0.01981848	          0.01003412	          0.08107873	          0.21192127	          0.21430863	          0.14550953	          0.05794748	          0.01000005	          0.02354316	          0.15864190	          0.01000029	          0.01186521	          0.04851603	          0.01407690	          0.01407725	          0.20649984	          0.12175332	          0.04355924	          0.01407704	          0.07208587	          0.07012915	          0.05990748	          0.01408078	          0.01670207	          0.01407716	          0.01408139	          0.01407883	          0.01408737	          0.21894114	          0.18997922	          0.12537820	          0.14315091	          0.30529442	          0.06502609	          0.24383818	          0.10228450	          0.05492861	          0.24606722	          0.22043160	          0.13913260	          0.01006081	          0.01000333	          0.01186457	          0.03438760	          0.07160851	          0.01000074	          0.01116755	          0.01186382	          0.01186377	          0.01186492	          0.31540743	          0.01000162	          0.01000091	          0.01407828	          0.01186511	          0.01186429	          0.18738033	          0.28998143	          0.01000217	          0.01186613	          0.05027714	          0.31380771	          0.02113759	          0.01638002	          0.01187110	          0.29020687	          0.35643173	          0.35076878	          0.27087988	          0.28732408	          0.34930547	          0.01000000	          0.01000008	          0.15697021	          0.01000004	          0.01057942	          0.01000010	          0.01462127	          0.01887635	          0.02851322	          0.01407728	          0.04153016	          0.01670143	
          1.15240702	         -2.91221802	         -2.67942651	          2.16447367	          1.29815963	          0.93304932	         -0.00106871	         21.45295263	          5.55288366	          4.38061491	         -4.02838770	          2.50442164	         -3.78742267	          0.21005174	        -14.23628003	         -0.14364612	          8.66414102	        -12.01262998	          3.90432311	          9.99847143	         19.43157055	         -4.05824585	          2.58086389	         -1.34041227	         -3.75226391	        -13.49092101	         18.17376158	         23.10266477	         -1.03753749	        -13.55180126	         19.18736310	         50.13322686	          0.24629835	          0.23021080	          0.24353228	          0.14983247	          0.01665384	          0.21156249	          0.13934965	          0.04479618	          0.02102494	          0.01670374	          0.01186410	          0.06833591	          0.17861442	          0.18062661	          0.12264043	          0.04884016	          0.01186394	          0.01984315	          0.13370880	          0.01000042	          0.01000050	          0.04089100	          0.01186479	          0.01186485	          0.17404508	          0.10261793	          0.12305283	          0.01186469	          0.06075653	          0.05910735	          0.05049216	          0.01186776	          0.01407708	          0.01186472	          0.01186829	          0.01186618	          0.01187337	          0.36617359	          0.20241775	          0.11295234	          0.43849840	          0.43117628	          0.19259221	          0.29677801	          0.08620883	          0.04629569	          0.37496447	          0.18578725	          0.11726567	          0.01000128	          0.01000014	          0.01000009	          0.02898304	          0.06035412	          0.01000201	          0.01000016	          0.01000021	          0.01000059	          0.01000035	          0.26583613	          0.07806017	          0.01000053	          0.01186582	          0.01000068	          0.01000028	          0.15793072	          0.24603681	          0.01000006	          0.01000127	          0.04237527	          0.26448778	          0.01781552	          0.01380568	          0.01000540	          0.24459615	          0.30041271	          0.29563977	          0.22830677	          0.24216650	          0.29440650	          0.01000001	          0.01001312	          0.16500370	          0.01000011	          0.01000002	          0.01000013	          0.01997044	          0.02883940	          0.02403192	          0.01186481	          0.03500302	          0.01407654	
